<?xml version="1.0" encoding="UTF-8"?>
<svg xmlns="http://www.w3.org/2000/svg" viewBox="326.4 327.4 1395.5 1395.5">
  <defs>
    <linearGradient id="copper" x1="0" y1="0" x2="1" y2="0">
      <stop offset="0%" stop-color="#7a3f24"/>
      <stop offset="50%" stop-color="#eab393"/>
      <stop offset="100%" stop-color="#7a3f24"/>
    </linearGradient>
  </defs>
  <path d="M1037.0 1658.4 C1044.2 1655.1 1045.5 1653.8 1057.2 1638.0 C1069.3 1621.7 1091.8 1599.1 1107.7 1587.2 C1127.0 1572.8 1151.4 1557.6 1175.0 1545.3 C1179.6 1542.9 1183.9 1540.5 1184.5 1540.1 C1185.0 1539.6 1186.6 1538.9 1188.0 1538.5 C1189.4 1538.1 1191.2 1537.2 1192.0 1536.5 C1194.1 1534.6 1252.0 1506.0 1253.6 1506.0 C1253.9 1506.0 1258.8 1503.7 1264.5 1501.0 C1270.3 1498.2 1277.6 1495.0 1280.8 1493.8 C1283.9 1492.7 1286.7 1491.4 1287.0 1491.0 C1287.3 1490.7 1294.0 1487.3 1302.0 1483.6 C1310.0 1479.8 1318.3 1475.8 1320.5 1474.5 C1322.7 1473.3 1330.3 1469.2 1337.5 1465.5 C1344.6 1461.7 1360.1 1452.1 1371.9 1444.3 C1392.8 1430.3 1395.4 1428.4 1403.4 1421.7 C1405.5 1420.0 1408.0 1418.1 1408.9 1417.6 C1411.0 1416.4 1425.3 1403.6 1435.9 1393.5 C1444.3 1385.4 1461.7 1366.2 1468.0 1358.0 C1469.9 1355.5 1472.2 1352.8 1473.0 1352.0 C1474.5 1350.6 1484.9 1336.1 1491.3 1326.6 C1492.8 1324.4 1496.1 1319.0 1498.6 1314.7 C1501.2 1310.4 1503.8 1306.4 1504.4 1305.7 C1505.1 1305.0 1508.0 1299.8 1511.0 1294.0 C1513.9 1288.2 1516.7 1282.8 1517.1 1282.0 C1517.6 1281.2 1519.1 1277.9 1520.4 1274.8 C1521.8 1271.6 1523.4 1269.0 1524.0 1269.0 C1524.6 1269.0 1527.0 1270.3 1529.3 1271.9 C1538.2 1278.0 1565.2 1292.8 1568.6 1293.5 C1573.0 1294.3 1576.4 1292.3 1578.7 1287.4 C1580.2 1284.4 1580.2 1282.7 1579.2 1272.2 C1578.5 1265.8 1576.8 1249.3 1575.5 1235.5 C1574.1 1221.8 1571.6 1199.7 1570.0 1186.5 C1566.8 1160.1 1561.5 1115.3 1560.4 1104.8 C1559.8 1098.7 1559.4 1097.7 1556.3 1095.0 C1549.9 1089.3 1544.0 1091.4 1530.6 1104.1 C1527.2 1107.2 1521.3 1112.4 1517.5 1115.6 C1509.4 1122.4 1509.0 1122.8 1499.5 1131.2 C1486.2 1143.0 1469.5 1157.8 1459.8 1166.3 C1454.5 1171.0 1448.8 1176.1 1447.2 1177.7 C1445.6 1179.2 1441.0 1183.2 1437.0 1186.5 C1425.7 1195.9 1414.9 1206.2 1413.4 1209.2 C1411.2 1213.5 1411.7 1217.5 1415.0 1221.3 C1417.6 1224.3 1420.5 1225.5 1440.2 1232.0 C1452.5 1236.0 1462.9 1239.6 1463.4 1240.0 C1464.1 1240.7 1461.7 1246.1 1457.3 1254.0 C1455.8 1256.6 1453.4 1261.0 1446.1 1274.5 C1443.7 1278.9 1440.1 1284.8 1438.1 1287.5 C1436.1 1290.2 1433.6 1293.8 1432.6 1295.5 C1431.5 1297.1 1430.3 1298.9 1429.8 1299.5 C1407.9 1327.2 1390.7 1345.0 1368.4 1363.0 C1351.5 1376.7 1317.8 1395.5 1296.0 1403.4 C1291.9 1404.9 1287.4 1406.6 1286.1 1407.1 C1278.6 1410.2 1255.4 1415.2 1244.6 1416.2 C1229.6 1417.5 1199.4 1416.7 1188.0 1414.6 C1159.2 1409.5 1136.3 1400.6 1106.5 1382.6 C1088.9 1372.0 1048.3 1341.8 1030.6 1326.0 C1027.2 1323.0 1019.5 1316.2 1013.5 1311.0 C998.9 1298.4 976.4 1277.5 961.2 1262.6 C944.6 1246.4 904.5 1204.3 897.6 1196.0 C896.0 1194.1 891.3 1188.7 887.0 1184.0 C828.1 1119.2 806.4 1077.6 810.0 1036.5 C811.8 1015.6 820.2 996.4 833.6 982.0 C844.8 970.2 859.4 961.4 875.6 956.9 C891.3 952.4 912.0 954.1 929.0 961.3 C940.8 966.3 955.1 974.9 960.7 980.6 C961.4 981.3 963.0 982.7 964.3 983.7 C970.1 988.4 981.4 1003.7 989.5 1018.0 C1000.1 1036.6 1006.3 1043.5 1015.1 1046.3 C1021.9 1048.4 1026.1 1048.5 1032.6 1046.5 C1042.0 1043.7 1047.9 1037.6 1056.0 1022.5 C1063.9 1007.4 1073.2 994.6 1083.0 985.1 C1109.1 959.9 1142.3 949.4 1171.9 956.9 C1181.3 959.3 1191.9 964.2 1201.6 970.6 C1210.5 976.5 1220.9 988.4 1226.3 998.8 C1235.5 1016.5 1238.6 1030.9 1237.7 1050.3 C1236.4 1077.5 1225.7 1102.8 1203.0 1132.5 C1188.2 1151.8 1183.8 1157.4 1176.6 1166.0 C1168.1 1176.1 1158.8 1186.7 1149.9 1196.4 C1146.9 1199.7 1141.8 1205.3 1138.6 1208.9 C1117.4 1232.4 1076.2 1273.9 1050.3 1298.0 C1036.8 1310.6 1036.9 1310.0 1044.8 1316.0 C1047.3 1317.9 1049.8 1320.0 1050.4 1320.5 C1051.0 1321.1 1054.2 1323.8 1057.5 1326.5 C1060.8 1329.3 1063.7 1331.8 1064.0 1332.1 C1064.3 1332.4 1067.0 1334.5 1070.0 1336.7 C1073.0 1338.9 1077.8 1342.6 1080.5 1344.9 C1088.9 1351.9 1087.8 1352.3 1107.2 1333.9 C1127.1 1314.9 1150.1 1291.9 1168.0 1272.9 C1174.9 1265.6 1182.5 1257.6 1185.0 1255.1 C1191.1 1248.9 1217.6 1219.0 1228.6 1206.0 C1233.4 1200.2 1237.9 1195.0 1238.5 1194.4 C1239.0 1193.7 1240.2 1192.4 1241.0 1191.3 C1241.8 1190.3 1244.3 1187.2 1246.6 1184.5 C1263.8 1163.5 1283.7 1131.3 1289.5 1115.0 C1304.2 1074.3 1307.0 1043.7 1299.5 1009.5 C1292.5 977.7 1278.6 952.8 1255.9 931.6 C1227.5 905.1 1192.9 891.9 1152.1 892.0 C1131.0 892.0 1117.1 894.5 1095.8 902.1 C1081.9 907.1 1076.8 909.7 1058.5 921.6 C1056.5 922.9 1056.5 922.6 1056.3 856.0 L1056.1 789.0 L1182.8 788.8 L1309.5 788.5 L1314.8 785.7 C1327.2 779.2 1333.1 770.4 1333.8 757.4 C1334.2 750.2 1333.9 748.5 1331.7 743.6 C1328.7 737.1 1321.4 728.9 1316.2 726.3 C1312.7 724.6 1306.2 724.5 1184.5 724.0 L1056.5 723.5 L1056.5 672.0 L1056.5 620.6 L1064.5 617.5 C1079.6 611.7 1084.0 609.3 1094.5 601.5 C1114.1 587.1 1127.9 568.1 1136.1 544.5 C1140.6 531.5 1142.0 522.5 1142.2 506.8 C1142.4 496.1 1142.0 490.4 1140.6 484.0 C1138.4 473.7 1132.9 457.8 1129.9 453.0 C1129.4 452.2 1128.3 450.0 1127.4 448.2 C1122.8 438.1 1106.2 419.2 1094.0 410.3 C1089.4 406.9 1069.9 396.2 1066.5 395.3 C1048.8 390.2 1041.5 388.8 1029.4 388.3 C1009.0 387.4 990.8 390.8 974.5 398.7 C960.9 405.2 957.6 407.3 948.3 415.2 C926.8 433.4 913.9 455.0 908.1 482.5 C905.5 494.8 905.2 516.7 907.5 528.7 C910.7 545.6 919.0 564.4 929.0 577.5 C933.5 583.3 947.5 597.0 954.0 601.8 C962.7 608.3 974.6 614.7 984.2 618.0 L991.0 620.4 L991.0 672.2 L991.0 724.0 L863.2 724.2 C740.2 724.5 735.4 724.6 732.0 726.4 C724.8 730.2 721.1 734.1 717.5 741.2 C714.5 747.2 714.0 749.3 714.0 755.1 C714.0 765.3 716.9 772.1 724.4 779.5 C734.9 789.8 722.7 789.0 866.3 789.0 L990.9 789.0 L991.2 855.2 C991.4 891.7 991.4 921.7 991.3 921.8 C991.2 922.0 986.3 919.3 980.3 915.8 C952.7 899.4 926.1 892.0 895.3 892.0 C873.1 892.0 861.7 894.1 839.5 902.2 C828.0 906.4 824.4 908.2 811.5 916.5 C802.5 922.3 784.2 938.6 779.2 945.2 C762.0 967.8 756.5 978.6 749.7 1003.0 C744.1 1022.9 742.8 1046.4 746.1 1071.3 C748.1 1086.7 757.0 1114.7 764.0 1127.5 C781.2 1159.2 783.9 1163.0 824.3 1211.8 C826.5 1214.4 831.0 1219.7 834.4 1223.5 C837.9 1227.3 842.2 1232.3 844.1 1234.5 C862.0 1255.6 908.1 1302.9 936.2 1329.1 C959.4 1350.7 985.7 1373.5 1007.2 1390.6 C1011.9 1394.4 1017.5 1398.8 1019.5 1400.5 C1021.6 1402.2 1024.3 1404.2 1025.5 1405.0 C1026.7 1405.8 1029.9 1408.2 1032.6 1410.3 C1042.2 1417.7 1054.6 1426.6 1060.0 1430.0 C1063.0 1431.9 1065.7 1433.8 1065.8 1434.2 C1066.0 1434.7 1066.6 1435.0 1067.2 1435.0 C1067.8 1435.0 1071.7 1437.2 1075.9 1439.9 C1087.0 1447.0 1115.8 1461.3 1128.0 1465.8 C1133.8 1467.9 1143.6 1471.1 1149.8 1473.0 C1155.9 1474.8 1161.0 1476.6 1161.0 1477.0 C1161.0 1477.4 1157.5 1479.3 1153.2 1481.3 C1146.2 1484.6 1132.6 1492.0 1119.5 1499.6 C1084.1 1520.3 1052.5 1544.6 1029.8 1568.7 L1024.2 1574.7 L1010.1 1560.9 C996.3 1547.4 983.3 1536.3 969.5 1526.4 C952.2 1513.9 948.8 1511.7 930.0 1500.7 C920.4 1495.0 895.9 1481.7 891.8 1479.9 C889.1 1478.7 887.0 1477.4 887.0 1476.9 C887.0 1476.1 893.3 1474.0 895.7 1474.0 C896.9 1474.0 913.9 1468.2 926.0 1463.7 C929.6 1462.4 940.3 1457.3 949.9 1452.4 C972.1 1441.0 972.1 1441.0 974.4 1438.8 C975.5 1437.8 976.7 1437.0 977.1 1437.0 C978.3 1437.0 995.8 1425.2 1003.2 1419.4 L1010.0 1414.2 L1006.6 1411.3 C1004.8 1409.8 1000.8 1406.6 997.9 1404.3 C994.9 1402.0 986.0 1394.8 978.0 1388.3 C958.7 1372.5 959.0 1372.7 957.1 1374.4 C955.3 1376.0 932.6 1389.0 921.0 1395.1 C911.6 1400.1 889.8 1408.3 877.2 1411.7 C855.1 1417.5 812.7 1418.6 791.0 1413.9 C762.3 1407.7 735.9 1398.1 715.7 1386.5 C711.2 1383.9 706.4 1381.1 705.0 1380.3 C694.6 1374.4 683.0 1365.9 669.0 1353.8 C646.1 1334.1 627.9 1313.8 612.5 1291.0 C606.8 1282.5 593.0 1259.6 593.0 1258.5 C593.0 1258.2 591.0 1254.5 588.5 1250.2 C583.1 1241.0 582.9 1239.4 587.2 1238.5 C589.0 1238.1 597.7 1235.3 606.5 1232.3 C615.3 1229.3 624.2 1226.4 626.3 1225.8 C630.7 1224.6 636.0 1219.0 636.0 1215.4 C636.0 1209.7 632.5 1205.2 618.5 1193.1 C604.4 1180.9 588.1 1166.6 578.0 1157.5 C571.1 1151.4 562.4 1143.7 558.5 1140.4 C554.6 1137.2 550.1 1133.2 548.5 1131.5 C546.9 1129.9 542.4 1125.8 538.5 1122.5 C527.0 1112.6 514.7 1101.8 511.5 1098.8 C506.4 1093.9 500.3 1090.8 497.1 1091.5 C492.2 1092.6 488.3 1097.7 487.6 1104.0 C486.9 1109.9 482.7 1146.8 481.0 1161.0 C480.4 1165.7 479.3 1174.6 478.5 1180.8 C475.1 1206.1 468.0 1274.6 468.0 1281.4 C468.0 1285.2 468.6 1286.6 471.3 1289.6 C477.2 1296.1 479.2 1295.4 514.5 1274.5 C519.5 1271.6 523.8 1269.4 524.3 1269.7 C524.7 1269.9 525.9 1272.2 527.1 1274.8 C530.0 1281.4 536.9 1294.7 539.9 1299.7 C541.3 1302.0 544.5 1307.2 546.9 1311.2 C555.0 1324.6 569.0 1344.5 576.9 1354.0 C579.5 1357.0 583.4 1362.0 585.7 1365.0 C592.0 1373.4 613.5 1395.5 626.2 1406.7 C645.6 1423.8 671.2 1442.3 696.0 1457.0 C711.1 1466.0 771.6 1496.2 785.5 1501.8 C787.7 1502.6 789.7 1503.6 790.0 1504.0 C790.3 1504.3 792.5 1505.4 795.0 1506.5 C797.5 1507.5 813.6 1515.3 830.9 1523.7 C919.5 1567.0 958.1 1594.9 993.3 1640.9 C1001.4 1651.6 1004.5 1654.9 1008.6 1657.2 C1018.2 1662.5 1027.0 1662.9 1037.0 1658.4 Z M1011.5 559.6 C983.4 552.2 965.9 527.5 969.0 500.0 C971.6 477.2 987.8 458.2 1010.0 451.9 C1012.5 451.2 1018.8 450.6 1024.0 450.6 C1039.5 450.6 1051.2 455.1 1060.9 464.8 C1068.0 471.9 1072.0 477.7 1075.6 486.0 C1077.9 491.5 1078.4 494.2 1078.8 503.5 C1079.2 513.6 1079.0 515.3 1076.5 522.5 C1070.2 540.7 1058.1 552.5 1039.0 559.0 C1033.6 560.8 1017.3 561.2 1011.5 559.6 Z" fill="url(#copper)" fill-rule="evenodd"/>
</svg>
